Coordinates
version=1
nRows=17
nColumns=40
inDegrees=yes

Units are S.I. units (second, meters, Newtons, ...)
If the header above contains a line with 'inDegrees', this indicates whether rotational values are in degrees (yes) or radians (no).

endheader
time	pelvis_tilt	pelvis_list	pelvis_rotation	pelvis_tx	pelvis_ty	pelvis_tz	hip_flexion_r	hip_adduction_r	hip_rotation_r	knee_angle_r	knee_angle_r_beta	ankle_angle_r	subtalar_angle_r	mtp_angle_r	hip_flexion_l	hip_adduction_l	hip_rotation_l	knee_angle_l	knee_angle_l_beta	ankle_angle_l	subtalar_angle_l	mtp_angle_l	lumbar_extension	lumbar_bending	lumbar_rotation	arm_flex_r	arm_add_r	arm_rot_r	elbow_flex_r	pro_sup_r	wrist_flex_r	wrist_dev_r	arm_flex_l	arm_add_l	arm_rot_l	elbow_flex_l	pro_sup_l	wrist_flex_l	wrist_dev_l
      0.13000000	     19.56451866	     -6.18423091	      5.80668478	     -0.03019526	      0.87691447	     -0.24627630	      5.78478701	      7.24237914	     -7.66692710	     22.89203680	      0.39954141	     -2.79850031	      0.00000000	      0.00000000	    -26.21719023	    -10.51531712	     -6.04890387	     45.99374116	      0.80274222	     -8.12224056	      0.00000000	      0.00000000	    -40.12785810	     11.80454016	     -0.28717168	      0.99003158	     -5.89362623	    -16.55273246	     30.50947676	     88.69603243	     -8.28555560	      5.03969717	      3.61499493	     -6.00579139	     -3.62172060	     44.33109300	     88.15967512	    -19.45807465	     -6.74185579
      0.14000000	     20.11817704	     -6.45806137	      5.38213661	     -0.01384049	      0.87970623	     -0.24411497	      4.28020502	      7.86360852	     -7.02890245	     23.39331510	      0.40829037	     -2.18693276	      0.00000000	      0.00000000	    -25.20477968	    -10.98173738	     -6.27599703	     48.79561836	      0.85164420	     -9.24327185	      0.00000000	      0.00000000	    -40.77221619	     11.65500822	      0.20748070	      1.52772631	     -5.85785440	    -16.14424577	     30.91893467	     88.65746391	     -8.12218821	      5.06881327	      3.12961288	     -5.95475500	     -3.67853385	     43.44044864	     88.06459972	    -19.49465963	     -6.47017412
      0.15000000	     20.09732279	     -7.17801872	      4.93139749	      0.00240400	      0.88179787	     -0.24187042	      3.25840161	      8.95881280	     -6.17866749	     23.47446569	      0.40970672	     -1.04333321	      0.00000000	      0.00000000	    -23.28716076	    -11.80718141	     -6.27040298	     51.67643776	      0.90192398	    -10.71763551	      0.00000000	      0.00000000	    -40.88507479	     11.86845299	      0.95337284	      2.01285396	     -5.91517139	    -15.49105935	     31.54565638	     88.73494134	     -7.92832076	      5.16842561	      2.56941331	     -5.83286691	     -3.64917730	     42.53034960	     88.28282183	    -19.57641024	     -6.08121193
      0.16000000	     19.83795510	     -7.63153379	      4.41999227	      0.01807147	      0.88383857	     -0.23956886	      2.46522706	      9.65481558	     -5.72506719	     23.54385001	      0.41091770	     -0.12878714	      0.00000000	      0.00000000	    -21.00619510	    -12.37364040	     -6.32840825	     54.39269898	      0.94933169	    -10.67062235	      0.00000000	      0.00000000	    -40.73282790	     11.79319074	      1.53742355	      2.61025947	     -5.89720799	    -14.94600666	     32.09075087	     88.68522419	     -7.82483435	      5.45431216	      2.14898750	     -5.75951728	     -3.43978462	     41.34537106	     88.42707130	    -19.72352915	     -5.39846561
      0.17000000	     20.01485583	     -7.76620683	      3.92430145	      0.03341709	      0.88703191	     -0.23738413	      0.87278384	     10.06149078	     -5.06991158	     23.04536856	      0.40221756	      0.83744443	      0.00000000	      0.00000000	    -19.25277097	    -12.51057428	     -6.18264190	     56.45690220	      0.98535883	    -10.27463686	      0.00000000	      0.00000000	    -41.07123406	     11.40814714	      2.01100292	      3.18102503	     -5.81677542	    -14.42900906	     32.84706214	     88.67379387	     -7.72342855	      5.40719383	      1.69206318	     -5.71763987	     -3.26327910	     40.34901057	     88.48020997	    -19.74796104	     -5.05762598
      0.18000000	     19.84886090	     -7.89852662	      3.47001390	      0.04838953	      0.88977516	     -0.23526191	     -0.34580613	     10.38794376	     -4.67993574	     22.51587724	      0.39297619	      1.79638296	      0.00000000	      0.00000000	    -16.98553600	    -12.66102729	     -5.98869524	     58.37438110	      1.01882515	     -8.96333256	      0.00000000	      0.00000000	    -41.04443655	     11.04256451	      2.59629689	      3.66552829	     -5.74833983	    -14.05864068	     33.65832786	     88.65434645	     -7.79981891	      5.34602978	      1.41601415	     -5.70204842	     -2.71824925	     39.11085102	     88.59457408	    -19.78120765	     -4.44904101
      0.19000000	     19.89138812	     -7.80444912	      2.99220520	      0.06316099	      0.89312424	     -0.23324849	     -1.98173810	     10.46790568	     -4.20531751	     21.64644178	      0.37780168	      2.69637914	      0.00000000	      0.00000000	    -15.01889165	    -12.49492927	     -5.77151197	     59.67636785	      1.04154910	     -7.51592817	      0.00000000	      0.00000000	    -41.23306567	     10.44282014	      3.03995206	      4.17639771	     -5.65061439	    -13.61428868	     34.55574557	     88.62977708	     -7.78122779	      5.15068459	      1.08481882	     -5.69861967	     -2.26776130	     37.97419677	     88.68065403	    -19.73142253	     -4.06137107
      0.20000000	     19.74800971	     -7.60593579	      2.54054285	      0.07768214	      0.89624266	     -0.23125910	     -3.47878580	     10.39557677	     -3.89741084	     20.60702061	      0.35966036	      3.37502279	      0.00000000	      0.00000000	    -12.81548983	    -12.20784693	     -5.51070433	     60.60734500	      1.05779772	     -5.73391906	      0.00000000	      0.00000000	    -41.21921141	      9.74983748	      3.60375502	      4.53165550	     -5.53428734	    -13.40397583	     35.63107290	     88.60254288	     -7.91994040	      4.79056618	      0.92304594	     -5.72665690	     -1.47526186	     36.71763261	     88.74640127	    -19.60005528	     -3.53940105
      0.21000000	     19.70947514	     -7.25999601	      2.10114961	      0.09200529	      0.89959036	     -0.22952498	     -5.15952615	     10.15276413	     -3.41136080	     19.41963266	      0.33893653	      3.90046750	      0.00000000	      0.00000000	    -10.77571618	    -11.66799696	     -5.14292100	     60.98924874	      1.06446320	     -4.20528435	      0.00000000	      0.00000000	    -41.32734382	      8.95398788	      3.89186486	      5.01068863	     -5.43842219	    -12.92424423	     36.70248488	     88.55537853	     -7.84989381	      4.53328621	      0.58908350	     -5.72356286	     -1.08264545	     35.64798970	     88.80737994	    -19.50383515	     -3.23511665
      0.22000000	     19.60407976	     -6.90053239	      1.72057861	      0.10637259	      0.90260202	     -0.22790112	     -6.77401411	      9.85796307	     -3.23133520	     18.20429858	      0.31772495	      4.40909110	      0.00000000	      0.00000000	     -8.74453989	    -11.14566339	     -4.85635928	     60.94245851	      1.06364656	     -2.13173788	      0.00000000	      0.00000000	    -41.28380513	      8.18106163	      4.35866381	      5.30707680	     -5.33866638	    -12.73474597	     37.89598941	     88.51929792	     -7.91027906	      4.11158766	      0.46878123	     -5.77702718	     -0.11954811	     34.32827885	     88.86551097	    -19.23633000	     -2.74835159
      0.23000000	     19.46182415	     -6.47571510	      1.36745462	      0.12067678	      0.90540331	     -0.22636141	     -8.38298831	      9.49278341	     -2.95981810	     16.87907493	      0.29459543	      4.69040030	      0.00000000	      0.00000000	     -6.71478621	    -10.52911472	     -4.51303152	     60.45787868	      1.05518904	     -0.55917964	      0.00000000	      0.00000000	    -41.20813663	      7.36339479	      4.78346050	      5.55522360	     -5.25156669	    -12.51458626	     39.20757530	     88.47452267	     -7.91096100	      3.69402304	      0.31510427	     -5.81295802	      0.70562987	     33.08908125	     88.90420607	    -18.96123926	     -2.31256091
      0.24000000	     19.11353713	     -6.12349728	      1.00110207	      0.13492667	      0.90751431	     -0.22478796	     -9.72481049	      9.19364665	     -2.70669637	     15.57627415	      0.27185727	      4.83542817	      0.00000000	      0.00000000	     -4.48864915	    -10.03424900	     -4.26278443	     59.64476662	      1.04099756	      0.29115139	      0.00000000	      0.00000000	    -40.95852093	      6.60630196	      4.99772559	      5.91321856	     -5.16773463	    -11.97944203	     40.56254387	     88.37422726	     -7.78583043	      3.42864067	     -0.12834498	     -5.81937261	      0.92667272	     32.22249049	     88.93204375	    -18.87607183	     -2.07934128
      0.25000000	     19.16555111	     -5.65865945	      0.71756048	      0.14939510	      0.90997033	     -0.22366382	    -11.59478643	      8.76009816	     -2.43720374	     14.12052004	      0.24644957	      4.92491912	      0.00000000	      0.00000000	     -2.92966797	     -9.33186846	     -3.92916520	     58.26160121	      1.01685677	      1.69591291	      0.00000000	      0.00000000	    -41.00029478	      5.80742081	      5.87570712	      5.77382214	     -5.19635202	    -12.28126291	     42.21413478	     88.36841416	     -7.75776539	      2.83310874	      0.11095241	     -5.87363658	      2.54609372	     30.62196821	     88.95619266	    -18.18659001	     -1.42332384
      0.26000000	     18.97517383	     -5.29776959	      0.45584955	      0.16392354	      0.91149821	     -0.22253983	    -13.13046057	      8.43789932	     -2.20871833	     12.77376727	      0.22294430	      5.03604282	      0.00000000	      0.00000000	     -1.13173932	     -8.80760078	     -3.67857403	     56.65848556	      0.98887712	      2.56810229	      0.00000000	      0.00000000	    -40.82109635	      5.12878363	      6.28950629	      5.92391766	     -5.22295937	    -11.93169551	     43.69125690	     88.31972835	     -7.51939947	      2.55613710	     -0.12567894	     -5.88623056	      3.17259672	     29.52116762	     88.97582792	    -17.84541179	     -1.07563942
      0.27000000	     18.63511938	     -5.06128687	      0.24562922	      0.17842464	      0.91219500	     -0.22154279	    -14.42660878	      8.25133617	     -1.94833985	     11.53882264	      0.20139045	      5.19811689	      0.00000000	      0.00000000	      0.82378530	     -8.42093569	     -3.31552673	     54.91935117	      0.95852350	      3.16552678	      0.00000000	      0.00000000	    -40.48981939	      4.60059867	      6.54369984	      6.18385525	     -5.28789936	    -11.30237632	     45.11991948	     88.23330032	     -7.31012251	      2.33435037	     -0.54206198	     -5.84660661	      3.32910454	     28.59535350	     89.00273359	    -17.74428996	     -0.84958023
      0.28000000	     18.61748837	     -4.78840846	      0.04170819	      0.19334745	      0.91297653	     -0.22062501	    -16.14148335	      8.01498232	     -1.72380653	     10.22518191	      0.17846309	      5.29556823	      0.00000000	      0.00000000	      2.14998431	     -8.02082754	     -3.15611726	     52.64625228	      0.91885044	      3.75007134	      0.00000000	      0.00000000	    -40.42248976	      4.05938846	      6.94059272	      6.30017925	     -5.35192790	    -10.94065137	     46.65009088	     88.17731928	     -7.05159073	      2.09361898	     -0.83817363	     -5.85164975	      3.86696590	     27.50688878	     89.00582403	    -17.47521604	     -0.56837401
      0.29000000	     18.59506996	     -4.56784289	     -0.19185097	      0.20833589	      0.91317228	     -0.21962154	    -17.80626345	      7.81686840	     -1.44421742	      9.00921551	      0.15724047	      5.44690719	      0.00000000	      0.00000000	      3.40710905	     -7.72324914	     -3.11805353	     50.21501769	      0.87641739	      4.09961900	      0.00000000	      0.00000000	    -40.35606991	      3.52213377	      7.46284730	      6.33186004	     -5.46752094	    -10.61205300	     48.28755901	     88.13367367	     -6.73416575	      1.90104772	     -1.12027237	     -5.84820613	      4.27491814	     26.50116486	     89.00943718	    -17.23167779	     -0.32283573
